<svg xmlns="http://www.w3.org/2000/svg" width="18.347" height="17.637" viewBox="0 0 18.347 17.637">
  <g id="Group_7966" data-name="Group 7966" transform="translate(-2356 14384.846)">
    <g id="Rectangle_2692" data-name="Rectangle 2692" transform="translate(2356 -14380.209)" fill="#fff" stroke="#000" stroke-width="1">
      <rect width="13" height="13" rx="2" stroke="none"/>
      <rect x="0.5" y="0.5" width="12" height="12" rx="1.5" fill="none"/>
    </g>
    <path id="Icon_awesome-long-arrow-alt-right" data-name="Icon awesome-long-arrow-alt-right" d="M10.763,12.449H.411A.4.4,0,0,0,0,12.824v1.75a.4.4,0,0,0,.411.375H10.763v1.439a.835.835,0,0,0,1.4.53l2.95-2.69a.7.7,0,0,0,0-1.061l-2.95-2.69a.835.835,0,0,0-1.4.53Z" transform="translate(2351.251 -14377.199) rotate(-57)" stroke="#fff" stroke-width="0.5"/>
  </g>
</svg>
